<svg width="20" height="21" viewBox="0 0 20 21" fill="none" xmlns="http://www.w3.org/2000/svg">
<path d="M10 20.5C15.523 20.5 20 16.023 20 10.5C20 10.037 19.306 9.96 19.067 10.357C18.5572 11.2013 17.862 11.9186 17.034 12.4545C16.206 12.9903 15.2669 13.3307 14.2878 13.4499C13.3088 13.5691 12.3154 13.4639 11.383 13.1423C10.4507 12.8207 9.60369 12.2911 8.90628 11.5937C8.20887 10.8963 7.67932 10.0493 7.35772 9.11695C7.03613 8.18457 6.93093 7.19123 7.0501 6.21217C7.16926 5.23311 7.50967 4.294 8.04553 3.46599C8.58139 2.63797 9.29866 1.94275 10.143 1.433C10.54 1.193 10.463 0.5 10 0.5C4.477 0.5 0 4.977 0 10.5C0 16.023 4.477 20.5 10 20.5Z" fill="white"/>
</svg>
