<svg width="20" height="20" viewBox="0 0 20 20" fill="none" xmlns="http://www.w3.org/2000/svg">
<path d="M6.83995 15.6347L17.8013 0.534521C18.0599 0.178174 18.3617 0 18.7066 0C19.0515 0 19.3533 0.178174 19.612 0.534521C19.8707 0.890869 20 1.31433 20 1.8049C20 2.29547 19.8707 2.71834 19.612 3.0735L7.74531 19.4655C7.48663 19.8218 7.18484 20 6.83995 20C6.49505 20 6.19326 19.8218 5.93459 19.4655L0.373088 11.804C0.114414 11.4477 -0.00975003 11.0248 0.00059694 10.5354C0.0109439 10.046 0.145885 9.62257 0.405422 9.26503C0.664958 8.9075 0.97235 8.72932 1.3276 8.73051C1.68284 8.7317 1.9898 8.90987 2.24848 9.26503L6.83995 15.6347Z" fill="white"/>
</svg>
