<svg width="95" height="32" viewBox="0 0 95 32" fill="none" xmlns="http://www.w3.org/2000/svg">
<rect x="-0.00219727" width="95.0022" height="32" rx="4" fill="#9255F0"/>
<path d="M10.2778 22.144C8.9338 22.144 7.8618 21.8133 7.0618 21.152C6.27247 20.4907 5.80847 19.5467 5.6698 18.32H6.9498C7.06714 19.2053 7.40314 19.872 7.9578 20.32C8.51247 20.768 9.28047 20.992 10.2618 20.992C11.0938 20.992 11.7178 20.8373 12.1338 20.528C12.5605 20.208 12.7738 19.744 12.7738 19.136C12.7738 18.6133 12.6298 18.1973 12.3418 17.888C12.0538 17.5787 11.6058 17.3227 10.9978 17.12L9.0618 16.448C8.08047 16.1067 7.35514 15.696 6.8858 15.216C6.41647 14.7253 6.1818 14.1067 6.1818 13.36C6.1818 12.7413 6.33647 12.208 6.6458 11.76C6.95514 11.3013 7.39247 10.944 7.9578 10.688C8.52314 10.432 9.17914 10.304 9.9258 10.304C11.0778 10.304 12.0005 10.608 12.6938 11.216C13.3871 11.8133 13.7871 12.6667 13.8938 13.776H12.6138C12.4751 12.976 12.1871 12.3893 11.7498 12.016C11.3231 11.6427 10.7045 11.456 9.8938 11.456C9.1258 11.456 8.52847 11.6107 8.1018 11.92C7.67514 12.2293 7.4618 12.6667 7.4618 13.232C7.4618 13.712 7.61114 14.096 7.9098 14.384C8.20847 14.672 8.67247 14.9227 9.3018 15.136L11.3658 15.856C12.2618 16.1653 12.9338 16.5867 13.3818 17.12C13.8298 17.6427 14.0538 18.3093 14.0538 19.12C14.0538 20.08 13.7231 20.8267 13.0618 21.36C12.4111 21.8827 11.4831 22.144 10.2778 22.144ZM19.2129 22.16C18.4663 22.16 17.7996 21.9787 17.2129 21.616C16.6369 21.2427 16.1783 20.736 15.8369 20.096C15.5063 19.4453 15.3409 18.7093 15.3409 17.888C15.3409 17.0667 15.5063 16.3413 15.8369 15.712C16.1783 15.0827 16.6369 14.5867 17.2129 14.224C17.7996 13.8613 18.4609 13.68 19.1969 13.68C19.8049 13.68 20.3489 13.7973 20.8289 14.032C21.3196 14.2667 21.7196 14.6027 22.0289 15.04C22.3489 15.4667 22.5516 15.968 22.6369 16.544H21.4529C21.3463 16.0213 21.1009 15.5947 20.7169 15.264C20.3329 14.9333 19.8369 14.768 19.2289 14.768C18.7063 14.768 18.2529 14.896 17.8689 15.152C17.4849 15.408 17.1863 15.7707 16.9729 16.24C16.7596 16.7093 16.6529 17.2587 16.6529 17.888C16.6529 18.5173 16.7596 19.072 16.9729 19.552C17.1863 20.032 17.4849 20.4053 17.8689 20.672C18.2636 20.9387 18.7223 21.072 19.2449 21.072C19.8316 21.072 20.3223 20.912 20.7169 20.592C21.1116 20.2613 21.3623 19.8347 21.4689 19.312H22.6529C22.5569 19.8773 22.3436 20.3787 22.0129 20.816C21.6929 21.2427 21.2929 21.5733 20.8129 21.808C20.3329 22.0427 19.7996 22.16 19.2129 22.16ZM24.5122 22V10.48H25.7922V22H24.5122ZM30.3522 22V16.656C30.3522 16.0373 30.1975 15.5733 29.8882 15.264C29.5788 14.9547 29.1202 14.8 28.5122 14.8C27.9788 14.8 27.5042 14.9173 27.0882 15.152C26.6828 15.3867 26.3628 15.712 26.1282 16.128C25.9042 16.544 25.7922 17.0293 25.7922 17.584L25.5842 15.648C25.8615 15.04 26.2828 14.56 26.8482 14.208C27.4242 13.856 28.0748 13.68 28.8002 13.68C29.6535 13.68 30.3362 13.9253 30.8482 14.416C31.3708 14.896 31.6322 15.5307 31.6322 16.32V22H30.3522ZM37.4823 22.16C36.6823 22.16 35.9783 21.9733 35.3703 21.6C34.7623 21.2267 34.2876 20.72 33.9463 20.08C33.6156 19.4293 33.4503 18.6987 33.4503 17.888C33.4503 17.0667 33.621 16.3413 33.9623 15.712C34.3036 15.0827 34.773 14.5867 35.3703 14.224C35.9783 13.8613 36.6823 13.68 37.4823 13.68C38.293 13.68 38.997 13.8613 39.5943 14.224C40.2023 14.5867 40.6716 15.0827 41.0023 15.712C41.3436 16.3413 41.5143 17.0667 41.5143 17.888C41.5143 18.6987 41.3436 19.4293 41.0023 20.08C40.6716 20.72 40.2023 21.2267 39.5943 21.6C38.997 21.9733 38.293 22.16 37.4823 22.16ZM37.4823 21.072C38.037 21.072 38.517 20.9387 38.9223 20.672C39.3276 20.3947 39.6423 20.016 39.8663 19.536C40.0903 19.056 40.2023 18.5013 40.2023 17.872C40.2023 16.9333 39.9516 16.1813 39.4503 15.616C38.9596 15.0507 38.3036 14.768 37.4823 14.768C36.6716 14.768 36.0156 15.0507 35.5143 15.616C35.013 16.1813 34.7623 16.9333 34.7623 17.872C34.7623 18.5013 34.8743 19.056 35.0983 19.536C35.3223 20.016 35.637 20.3947 36.0423 20.672C36.4583 20.9387 36.9383 21.072 37.4823 21.072ZM46.8261 22.16C46.0261 22.16 45.3221 21.9733 44.7141 21.6C44.1061 21.2267 43.6314 20.72 43.2901 20.08C42.9594 19.4293 42.7941 18.6987 42.7941 17.888C42.7941 17.0667 42.9647 16.3413 43.3061 15.712C43.6474 15.0827 44.1167 14.5867 44.7141 14.224C45.3221 13.8613 46.0261 13.68 46.8261 13.68C47.6367 13.68 48.3407 13.8613 48.9381 14.224C49.5461 14.5867 50.0154 15.0827 50.3461 15.712C50.6874 16.3413 50.8581 17.0667 50.8581 17.888C50.8581 18.6987 50.6874 19.4293 50.3461 20.08C50.0154 20.72 49.5461 21.2267 48.9381 21.6C48.3407 21.9733 47.6367 22.16 46.8261 22.16ZM46.8261 21.072C47.3807 21.072 47.8607 20.9387 48.2661 20.672C48.6714 20.3947 48.9861 20.016 49.2101 19.536C49.4341 19.056 49.5461 18.5013 49.5461 17.872C49.5461 16.9333 49.2954 16.1813 48.7941 15.616C48.3034 15.0507 47.6474 14.768 46.8261 14.768C46.0154 14.768 45.3594 15.0507 44.8581 15.616C44.3567 16.1813 44.1061 16.9333 44.1061 17.872C44.1061 18.5013 44.2181 19.056 44.4421 19.536C44.6661 20.016 44.9807 20.3947 45.3861 20.672C45.8021 20.9387 46.2821 21.072 46.8261 21.072ZM52.7778 22V10.48H54.0578V22H52.7778Z" fill="white"/>
<path d="M84.4678 23.1927L83.4678 19.3327L80.3178 7.74271C80.2497 7.48705 80.0831 7.26878 79.8545 7.13571C79.6258 7.00264 79.3537 6.9656 79.0978 7.03271L75.2278 8.03271C75.1354 7.93036 75.0229 7.8482 74.8973 7.79141C74.7717 7.73462 74.6357 7.70442 74.4978 7.70271H64.4978C64.2326 7.70271 63.9782 7.80807 63.7907 7.9956C63.6032 8.18314 63.4978 8.43749 63.4978 8.70271V24.7027C63.4978 24.9679 63.6032 25.2223 63.7907 25.4098C63.9782 25.5974 64.2326 25.7027 64.4978 25.7027H74.4978C74.763 25.7027 75.0174 25.5974 75.2049 25.4098C75.3924 25.2223 75.4978 24.9679 75.4978 24.7027V16.7027L77.6978 24.9227C77.7564 25.1409 77.8871 25.3328 78.0687 25.4671C78.2503 25.6015 78.472 25.6704 78.6978 25.6627C78.7842 25.6721 78.8714 25.6721 78.9578 25.6627L83.7878 24.3727C83.9155 24.3386 84.0352 24.2795 84.1399 24.1988C84.2446 24.1181 84.3322 24.0175 84.3978 23.9027C84.5033 23.6815 84.5281 23.4303 84.4678 23.1927ZM68.4678 23.7427H65.4678V21.7427H68.4678V23.7427ZM68.4678 19.7427H65.4678V13.7427H68.4678V19.7427ZM68.4678 11.7427H65.4678V9.74271H68.4678V11.7427ZM73.4678 23.7427H70.4678V21.7427H73.4678V23.7427ZM73.4678 19.7427H70.4678V13.7427H73.4678V19.7427ZM73.4678 11.7427H70.4678V9.74271H73.4678V11.7427ZM75.7178 10.0027L78.6178 9.22271L79.1378 11.1527L76.2378 11.9327L75.7178 10.0027ZM78.3078 19.6627L76.7578 13.8627L79.6578 13.0827L81.2078 18.8827L78.3078 19.6627ZM79.3078 23.5227L78.7878 21.5927L81.6878 20.8127L82.2078 22.7427L79.3078 23.5227Z" fill="white"/>
</svg>
