<svg width="21" height="21" viewBox="0 0 21 21" fill="none" xmlns="http://www.w3.org/2000/svg">
<path d="M7.89687 15.2937C5.82954 15.2937 4.08009 14.5776 2.64851 13.1452C1.21693 11.7129 0.500759 9.96344 0.500001 7.89687C0.499242 5.8303 1.21541 4.08084 2.64851 2.64851C4.0816 1.21617 5.83106 0.5 7.89687 0.5C9.96268 0.5 11.7125 1.21617 13.1464 2.64851C14.5802 4.08084 15.296 5.8303 15.2937 7.89687C15.2937 8.73139 15.161 9.51849 14.8954 10.2582C14.6299 10.9979 14.2696 11.6522 13.8144 12.2212L20.1871 18.5939C20.3957 18.8025 20.5 19.068 20.5 19.3905C20.5 19.7129 20.3957 19.9784 20.1871 20.1871C19.9784 20.3957 19.7129 20.5 19.3905 20.5C19.068 20.5 18.8025 20.3957 18.5939 20.1871L12.2212 13.8144C11.6522 14.2696 10.9979 14.6299 10.2582 14.8954C9.51849 15.161 8.73139 15.2937 7.89687 15.2937ZM7.89687 13.0178C9.31935 13.0178 10.5286 12.5201 11.5248 11.5247C12.5209 10.5294 13.0185 9.3201 13.0178 7.89687C13.017 6.47364 12.5193 5.26472 11.5248 4.27013C10.5302 3.27553 9.32086 2.77748 7.89687 2.77596C6.47288 2.77444 5.26396 3.2725 4.27013 4.27013C3.27629 5.26776 2.77824 6.47667 2.77596 7.89687C2.77368 9.31707 3.27174 10.5264 4.27013 11.5247C5.26852 12.5231 6.47743 13.0208 7.89687 13.0178Z" fill="white"/>
</svg>
