<svg width="22" height="22" viewBox="0 0 22 22" fill="none" xmlns="http://www.w3.org/2000/svg">
<path d="M10.3061 1.28774L1.28726 10.3064C1.10333 10.4904 1 10.7398 1 11C1 11.2601 1.10333 11.5096 1.28726 11.6936L10.3066 20.7127C10.4906 20.8967 10.7401 21 11.0002 21C11.2604 21 11.5099 20.8967 11.6939 20.7127L20.7127 11.6941C20.8967 11.5101 21 11.2606 21 11.0005C21 10.7403 20.8967 10.4908 20.7127 10.3069L11.6934 1.28725C11.5094 1.10332 11.2599 1 10.9998 1C10.7396 1 10.4901 1.10332 10.3061 1.28725V1.28774Z" stroke="white" stroke-width="1.66667" stroke-linejoin="round"/>
<path d="M7.9519 11H13.8386M10.8952 8.05675V13.9433" stroke="white" stroke-width="1.66667" stroke-linecap="round"/>
</svg>
