<svg width="20" height="20" viewBox="0 0 20 20" fill="none" xmlns="http://www.w3.org/2000/svg">
<path fill-rule="evenodd" clip-rule="evenodd" d="M0 18.8889V18.1278C0 17.3667 0.524211 16.48 1.17263 16.1456L7.13053 13.0767C7.99474 12.6322 8.19579 11.6456 7.57263 10.8656L7.19158 10.3889C6.41684 9.42 5.78947 7.61111 5.78947 6.34444V4.44444C5.78947 3.2657 6.23308 2.13524 7.02271 1.30175C7.81234 0.468252 8.8833 0 10 0C11.1167 0 12.1877 0.468252 12.9773 1.30175C13.7669 2.13524 14.2105 3.2657 14.2105 4.44444V6.34444C14.2105 7.61111 13.5789 9.42556 12.8084 10.3911L12.4284 10.8667C11.8074 11.6433 12.0011 12.6311 12.8695 13.0778L18.8274 16.1467C19.4747 16.48 20 17.3611 20 18.1278V18.8889C20 19.1836 19.8891 19.4662 19.6917 19.6746C19.4943 19.8829 19.2265 20 18.9474 20H1.05263C0.773456 20 0.505715 19.8829 0.308309 19.6746C0.110902 19.4662 0 19.1836 0 18.8889Z" fill="white"/>
</svg>
