<svg width="20" height="20" viewBox="0 0 20 20" fill="none" xmlns="http://www.w3.org/2000/svg">
<path d="M19.9693 17.3159L19.017 13.1882L16.0174 0.794228C15.9525 0.520834 15.7939 0.287429 15.5761 0.145124C15.3584 0.0028187 15.0993 -0.036787 14.8556 0.0349798L11.1702 1.10434C11.0823 0.994889 10.9751 0.907038 10.8555 0.84631C10.7359 0.785581 10.6064 0.753286 10.4751 0.751453H0.95228C0.69972 0.751453 0.457504 0.864118 0.278916 1.06466C0.100329 1.26521 0 1.5372 0 1.82082V18.9306C0 19.2142 0.100329 19.4862 0.278916 19.6868C0.457504 19.8873 0.69972 20 0.95228 20H10.4751C10.7276 20 10.9699 19.8873 11.1484 19.6868C11.327 19.4862 11.4274 19.2142 11.4274 18.9306V10.3757L13.5224 19.1659C13.5782 19.3992 13.7027 19.6044 13.8756 19.7481C14.0485 19.8918 14.2597 19.9655 14.4747 19.9572C14.5569 19.9673 14.64 19.9673 14.7223 19.9572L19.3218 18.5777C19.4434 18.5412 19.5573 18.478 19.657 18.3918C19.7567 18.3055 19.8402 18.1979 19.9027 18.0751C20.0031 17.8386 20.0267 17.57 19.9693 17.3159ZM4.73283 17.904H1.87599V15.7653H4.73283V17.904ZM4.73283 13.6266H1.87599V7.21041H4.73283V13.6266ZM4.73283 5.07168H1.87599V2.93296H4.73283V5.07168ZM9.49424 17.904H6.63739V15.7653H9.49424V17.904ZM9.49424 13.6266H6.63739V7.21041H9.49424V13.6266ZM9.49424 5.07168H6.63739V2.93296H9.49424V5.07168ZM11.6369 3.21099L14.3985 2.37689L14.8937 4.44076L12.1321 5.27486L11.6369 3.21099ZM14.1033 13.541L12.6272 7.33873L15.3889 6.50463L16.8649 12.7069L14.1033 13.541ZM15.0556 17.6688L14.5604 15.6049L17.322 14.7708L17.8172 16.8347L15.0556 17.6688Z" fill="white"/>
</svg>
