<svg width="22" height="22" viewBox="0 0 22 22" fill="none" xmlns="http://www.w3.org/2000/svg">
<path d="M11 6V12" stroke="white" stroke-width="1.25" stroke-linecap="round"/>
<path d="M11 16C11.6137 16 12.1111 15.5523 12.1111 15C12.1111 14.4477 11.6137 14 11 14C10.3864 14 9.88892 14.4477 9.88892 15C9.88892 15.5523 10.3864 16 11 16Z" fill="white"/>
<path d="M6.38111 2.802C8.63556 1.601 9.76222 1 11 1C12.2378 1 13.3644 1.6 15.6189 2.802L16.3811 3.208C18.6356 4.41 19.7622 5.011 20.3811 6C21 6.99 21 8.19 21 10.594V11.406C21 13.809 21 15.011 20.3811 16C19.7622 16.989 18.6356 17.59 16.3811 18.791L15.6189 19.198C13.3644 20.399 12.2378 21 11 21C9.76222 21 8.63556 20.4 6.38111 19.198L5.61889 18.791C3.36444 17.591 2.23778 16.989 1.61889 16C1 15.01 1 13.81 1 11.406V10.594C1 8.19 1 6.989 1.61889 6C2.23778 5.011 3.36444 4.41 5.61889 3.208L6.38111 2.802Z" stroke="white" stroke-width="1.25"/>
</svg>
